<?xml version="1.0" encoding="UTF-8" standalone="no"?>
<svg
   xmlns:dc="http://purl.org/dc/elements/1.1/"
   xmlns:cc="http://creativecommons.org/ns#"
   xmlns:rdf="http://www.w3.org/1999/02/22-rdf-syntax-ns#"
   xmlns:svg="http://www.w3.org/2000/svg"
   xmlns="http://www.w3.org/2000/svg"
   viewBox="0 0 70.024506 86.753067"
   height="67"
   width="53"
   xml:space="preserve"
   id="svg2"
   version="1.1"><metadata
     id="metadata8"><rdf:RDF><cc:Work
         rdf:about=""><dc:format>image/svg+xml</dc:format><dc:type
           rdf:resource="http://purl.org/dc/dcmitype/StillImage" /></cc:Work></rdf:RDF></metadata><defs
     id="defs6" /><g
     transform="matrix(1.3333333,0,0,-1.3333333,0,86.753064)"
     id="g10"><g
       transform="scale(0.1)"
       id="g12"><path
         id="path14"
         style="fill:#e7f3fc;fill-opacity:1;fill-rule:nonzero;stroke:none"
         d="M 457.793,159.805 H 335.48 c -18.964,0 -34.476,-15.52 -34.476,-34.477 0,-18.965 15.512,-34.4764 34.476,-34.4764 h 95.77 c 13.242,0 26.516,16.0234 28.457,24.0744 1.945,8.054 5.582,14.332 7.223,26.101 1.64,11.766 0.992,18.778 -9.137,18.778" /><path
         id="path16"
         style="fill:#e7f3fc;fill-opacity:1;fill-rule:nonzero;stroke:none"
         d="m 487.352,262.418 c -6.707,-1.539 -11.77,-3.633 -18.2,-3.633 -6.429,0 -113.398,0 -113.398,0 -20.184,0 -36.695,-17.222 -36.695,-38.273 0,-21.047 16.511,-38.27 36.695,-38.27 h 101.922 c 14.094,0 28.219,17.793 30.285,26.727 2.07,8.941 4.473,14.578 7.684,28.972 1.746,13.059 -1.59,26.008 -8.293,24.477" /><path
         id="path18"
         style="fill:#e7f3fc;fill-opacity:1;fill-rule:nonzero;stroke:none"
         d="m 430.684,68.9531 h -116.11 c -18,0 -32.726,-15.5117 -32.726,-34.4765 C 281.848,15.5117 296.574,0 314.574,0 h 90.91 c 12.575,0 25.172,16.0273 27.016,24.082 1.848,8.0508 5.293,14.3321 6.852,26.0938 1.562,11.7695 0.941,18.7773 -8.668,18.7773" /><path
         id="path20"
         style="fill:#e7f3fc;fill-opacity:1;fill-rule:nonzero;stroke:none"
         d="m 496.105,408.766 c -0.035,0.007 -0.066,0.015 -0.097,0.019 -17.36,7.336 -55.508,7.985 -88.422,7.985 -37.902,0 -68.004,-0.024 -118.078,-0.024 26.269,43.785 36.672,129.438 33.93,172.121 -2.735,42.688 -23.532,61.781 -46.516,61.781 -22.984,0 -37.215,-24.015 -47.067,-56.308 C 220.008,562.051 216.719,542.895 149.953,453.145 83.1836,363.391 25.8203,354.465 0,345.879 0,317.66 0,59.1055 0,59.1055 0,59.1055 22.9648,47.3242 76.7148,34.4766 122.5,23.5352 169.973,22.793 197.34,21.6992 c 11.75,-0.4687 37.082,-0.6719 59.746,-0.6719 -0.957,4.336 -1.508,8.8204 -1.508,13.4493 0,23.4062 12.938,43.7226 31.82,53.8632 -7.91,10.2579 -12.668,23.0622 -12.668,36.9882 0,23.387 13.309,43.695 32.731,53.844 -9.145,11.211 -14.668,25.625 -14.668,41.34 0,24.937 13.895,46.574 34.137,57.316 -7.989,10.535 -12.793,23.727 -12.793,38.067 0,34.316 27.25,62.234 60.746,62.234 h 83.215 l -17.996,-26.27 c -30,0 -65.219,0 -65.219,0 -18.965,0 -34.477,-16.179 -34.477,-35.964 0,-19.782 15.512,-35.961 34.477,-35.961 h 78.265 c 11.457,0 34.172,7.375 42.954,19.242 l 0.003,-0.004 c 0,0 0.036,0.051 0.04,0.058 0.191,0.258 0.367,0.516 0.543,0.774 3.226,4.652 20.203,29.551 25.414,45.875 5.761,18.059 6.562,54.086 -25.997,62.887" /></g></g></svg>
