<?xml version="1.0" encoding="UTF-8" standalone="no"?>
<svg
   xmlns:dc="http://purl.org/dc/elements/1.1/"
   xmlns:cc="http://creativecommons.org/ns#"
   xmlns:rdf="http://www.w3.org/1999/02/22-rdf-syntax-ns#"
   xmlns:svg="http://www.w3.org/2000/svg"
   xmlns="http://www.w3.org/2000/svg"
   viewBox="0 0 77.383171 90.274941"
   height="67"
   width="59"
   xml:space="preserve"
   id="svg2"
   version="1.1"><metadata
     id="metadata8"><rdf:RDF><cc:Work
         rdf:about=""><dc:format>image/svg+xml</dc:format><dc:type
           rdf:resource="http://purl.org/dc/dcmitype/StillImage" /></cc:Work></rdf:RDF></metadata><defs
     id="defs6" /><g
     transform="matrix(1.3333333,0,0,-1.3333333,0,90.275464)"
     id="g10"><g
       transform="scale(0.1)"
       id="g12"><path
         id="path14"
         style="fill:#e7f3fc;fill-opacity:1;fill-rule:nonzero;stroke:none"
         d="m 286.492,51.2891 c -129.687,0 -235.199,105.5159 -235.199,235.2069 0,129.688 105.512,235.199 235.199,235.199 129.692,0 235.207,-105.511 235.207,-235.199 0,-129.691 -105.515,-235.2069 -235.207,-235.2069 z m 25.649,520.4959 v 53.988 h 27.05 c 14.168,0 25.645,11.485 25.645,25.649 0,14.164 -11.477,25.644 -25.645,25.644 H 233.797 c -14.164,0 -25.645,-11.48 -25.645,-25.644 0,-14.164 11.481,-25.649 25.645,-25.649 h 27.051 V 571.785 C 114.852,558.762 0,435.816 0,286.496 0,128.523 128.523,0.00390625 286.492,0.00390625 c 157.973,0 286.5,128.51909375 286.5,286.49209375 0,149.32 -114.859,272.266 -260.851,285.289" /><path
         id="path16"
         style="fill:#e7f3fc;fill-opacity:1;fill-rule:nonzero;stroke:none"
         d="m 528.969,491.852 c 5.894,-5.317 13.265,-7.934 20.621,-7.934 8.402,0 16.765,3.422 22.851,10.145 11.391,12.613 10.395,32.078 -2.218,43.472 l -40.836,36.875 c -12.629,11.406 -32.063,10.406 -43.465,-2.207 -11.391,-12.609 -10.402,-32.074 2.211,-43.473 l 40.836,-36.878" /><path
         id="path18"
         style="fill:#e7f3fc;fill-opacity:1;fill-rule:nonzero;stroke:none"
         d="m 286.496,489.379 c -112.051,0 -202.8827,-90.832 -202.8827,-202.883 0,-112.051 90.8317,-202.8866 202.8827,-202.8866 112.047,0 202.883,90.8356 202.883,202.8866 H 286.496 v 202.883" /></g></g></svg>
